<svg t="1711193588147" class="icon" viewBox="0 0 1024 1024" version="1.1" xmlns="http://www.w3.org/2000/svg" p-id="1228" width="16" height="16"><path d="M511.447612 516.409668m-491.234076 0a491.234076 491.234076 0 1 0 982.468153 0 491.234076 491.234076 0 1 0-982.468153 0Z" opacity=".07" p-id="1229"></path><path d="M357.772195 953.597507l42.783115 41.893711c13.464696 11.382773 26.638242-2.221515 26.638242-2.221516 119.124273-170.179243 267.41142-183.017767 267.41142-183.017766-133.418548-22.502315-286.439875 81.55793-335.544538 118.362497-0.011965 0-18.318528 10.557183-1.288239 24.983074z" fill="#FFFFFF" p-id="1230"></path><path d="M412.061722 1023.960116c-9.747547-0.003988-19.068339-3.529697-26.957311-10.198231a22.534222 22.534222 0 0 1-1.296216-1.176565L341.563508 971.214083c-13.380941-11.741726-18.178935-27.360135-12.826559-41.961513 2.408968-6.580791 8.578958-15.259457 16.71122-20.348602 51.194562-38.272282 182.275932-125.736971 310.322162-125.736971 14.69311 0 29.095071 1.172577 42.811034 3.485825a23.922171 23.922171 0 0 1-1.918401 47.43354c-0.251267 0.02393-35.081596 3.533685-83.053564 26.52258-44.17904 21.174192-108.981879 63.753901-166.817057 146.372735-0.725881 1.036973-1.531529 2.014121-2.412957 2.923466-2.265387 2.35712-14.497681 14.054973-32.317664 14.054973zM380.601555 942.458023l31.45219 30.7981c34.208146-47.541226 70.534109-83.0416 105.296637-109.536262-60.056693 25.69699-111.21536 60.16039-136.748827 78.738162z m-10.824403 7.549961a22.613989 22.613989 0 0 1-2.20955 0.969171c0.765765-0.271208 1.511588-0.590277 2.20955-0.969171z" fill="#666666" p-id="1231"></path><path d="M788.77409 784.806212s-27.758971 32.42535-70.737516 46.448416c-34.906108 11.398727-85.977031 19.925836-110.688896-13.815671 0 0-34.335773-67.746247 110.688896-154.122114 0 0-1.687075 70.709597-29.174838 107.003653-0.003988 0 52.103907-16.802952 99.912354 14.485716z" fill="#FFFFFF" p-id="1232"></path><path d="M662.526609 865.263356c-41.171818 0-63.231426-18.318528-74.49056-33.685671a24.344937 24.344937 0 0 1-2.038051-3.318314c-1.348065-2.660235-12.802629-27.013148-0.323057-63.275297 14.557506-42.304512 54.967548-83.42847 120.109398-122.227216a23.930147 23.930147 0 0 1 36.170418 21.13032c-0.131616 5.623585-1.435809 42.404221-12.934245 78.115977 26.510615 1.040961 51.585421 8.862131 72.859322 22.781501a23.930147 23.930147 0 0 1 5.069203 35.588117c-1.31217 1.531529-32.688581 37.709924-81.494117 53.631449-22.873232 7.470194-44.043436 11.259134-62.928311 11.259134z m-33.924972-59.502311c3.964428 4.490891 12.958175 11.642017 33.924972 11.642016 13.632207 0 30.255683-3.075024 48.079655-8.894038 12.818582-4.183787 24.149507-10.405626 33.41845-16.675324a104.060246 104.060246 0 0 0-21.078471-2.085911c-15.678235 0-26.781823 3.366174-26.889509 3.398081-9.938988 3.071036-20.771368-0.610219-26.725986-9.121375s-5.819014-19.866011 0.450684-28.14983c8.267866-10.908159 13.899427-27.037078 17.648484-43.126114-64.12083 49.647079-60.654947 85.067685-58.828279 93.012495z" fill="#666666" p-id="1233"></path><path d="M910.993329 664.983976s-16.866766 39.173651-53.583588 65.253524c-29.828929 21.186157-75.854579 44.3984-109.265053 19.455209 0 0-52.550604-54.620561 59.925077-179.914824 0 0 19.180013 68.053351 3.705185 110.848431 0.003988 0 44.597818-31.440225 99.218379-15.64234z" fill="#FFFFFF" p-id="1234"></path><path d="M781.838336 784.431307c-18.019401 0.003988-34.17225-5.232726-48.007864-15.562573a23.985984 23.985984 0 0 1-2.927455-2.580467c-6.955696-7.230893-64.396026-74.630153 59.366707-212.491732a23.930147 23.930147 0 1 1 40.840785 9.492292c1.523553 5.408213 11.087635 40.928529 10.652904 78.427069 11.115553-2.983292 23.902229-5.097121 37.821598-5.097121 12.902338 0 25.708955 1.810714 38.056911 5.384283a23.922171 23.922171 0 0 1 15.331247 32.44928c-0.793683 1.854586-19.997626 45.678663-61.703884 75.304185-32.397431 23.008837-62.485603 34.674783-89.430949 34.674784z m-17.094102-52.363151c4.925622 3.031152 10.549207 4.506844 17.094102 4.506844 16.340302 0 38.256329-9.177212 61.71585-25.84057 10.960007-7.781286 19.901906-17.078148 26.865578-25.804676-26.139698 2.556537-44.649667 15.115876-44.853073 15.259457a23.930147 23.930147 0 1 1-36.294056-27.699145c4.626495-12.790664 5.268621-29.721243 4.135927-46.109406-46.125359 66.454019-32.082351 99.597273-28.664328 105.687496z" fill="#666666" p-id="1235"></path><path d="M979.800479 503.008786s-0.446696 42.978545-24.608168 82.255893c-19.614744 31.898886-53.595553 72.444533-94.599861 63.550494 0 0-70.514167-28.105958-14.302251-190.05323 0 0 44.545969 54.385248 46.80338 100.111772 0.007977-0.007977 29.430093-47.501342 86.7069-55.864929z" fill="#FFFFFF" p-id="1236"></path><path d="M872.114816 673.989688c-5.535841 0-11.119542-0.602242-16.595557-1.790772a23.690846 23.690846 0 0 1-3.784951-1.156624c-2.791851-1.112752-27.699146-11.917213-41.670364-47.852318-16.188745-41.63048-11.602133-99.597273 13.624231-172.277119a23.930147 23.930147 0 0 1 41.115981-7.318637c3.541662 4.319392 26.315185 32.816209 40.621426 67.347411 17.05023-13.719951 40.729111-27.204589 70.916991-31.611724a23.902229 23.902229 0 0 1 19.203943 5.65948 23.954077 23.954077 0 0 1 8.184111 18.270667c-0.02393 2.026086-0.833567 50.125682-28.157807 94.544024-30.642554 49.83852-66.418124 76.181624-103.458004 76.185612z m-3.669289-48.087631c1.220438 0.151558 2.436887 0.227336 3.669289 0.227337 18.976607 0 41.825909-19.467175 62.692998-53.400124 7.079335-11.510401 11.785598-23.539288 14.91247-34.315831-23.587149 13.484638-36.186371 32.907941-36.35787 33.179149-5.595666 8.790341-16.276489 13.029965-26.347093 10.3458a23.89824 23.89824 0 0 1-17.819983-21.892096c-0.682009-13.79573-6.832057-29.77708-14.409937-44.438284-17.963564 81.402385 8.080413 106.11425 13.660126 110.294049z" fill="#666666" p-id="1237"></path><path d="M985.104995 331.417664s13.875497 40.68125 3.71715 85.917206c-8.251912 36.74873-27.451867 86.511471-69.868054 92.047311 0 0-77.18669-2.564514-77.027155-174.367018 0 0 60.966039 36.166429 78.363255 78.514813 0.003988 0 12.491537-54.772119 64.814804-82.112312z" fill="#FFFFFF" p-id="1238"></path><path d="M918.954091 533.312329c-0.263232 0-0.530452-0.003988-0.793683-0.011965-3.039129-0.099709-30.435159-1.826668-55.817068-30.953646-29.497895-33.841217-44.418342-90.148853-44.346552-167.351497a23.938124 23.938124 0 0 1 36.138511-20.559985c4.865797 2.887571 36.50544 22.179258 61.847466 50.097764 11.725772-18.785166 30.048288-39.700114 58.042572-54.325423a23.926159 23.926159 0 0 1 33.729543 13.484638c0.654091 1.922389 15.921525 47.656888 4.415112 98.887345-14.736982 65.616464-46.743554 104.869882-90.120935 110.529363a23.587149 23.587149 0 0 1-3.094966 0.203406zM868.409632 384.757962c9.47235 83.388587 42.428151 98.009907 50.468681 100.347085 28.680282-6.684488 42.081164-52.929498 46.591997-73.014868 3.007222-13.384929 3.509755-26.430848 2.903524-37.709924-18.89684 21.046565-24.711865 44.318633-24.791633 44.64169a24.101647 24.101647 0 0 1-16.755091 17.528833 23.922171 23.922171 0 0 1-28.668317-13.927346c-5.352376-13.021989-17.157916-26.394953-29.749161-37.86547z" fill="#666666" p-id="1239"></path><path d="M908.727942 161.545525s31.71941 28.321329 44.992665 72.560195c10.78452 35.931116 18.505981 88.593394-15.255469 114.529685 0 0-67.574748 36.222266-151.04709-112.64718 0 0 70.007646 0.949229 105.551892 28.95149 0.007977 0-15.897595-53.655379 15.758002-103.39419z" fill="#FFFFFF" p-id="1240"></path><path d="M918.555256 376.446225c-36.409719 0-92.338462-22.338793-152.008285-128.756158a23.922171 23.922171 0 0 1 0.307104-23.938124c4.375229-7.350544 12.451653-11.753691 20.88703-11.693865 5.583701 0.075779 42.057234 1.013043 77.42998 12.515467 0.929287-22.103479 6.473105-49.32801 23.367789-75.874521a23.922171 23.922171 0 0 1 36.122558-5.001401c1.499623 1.340088 36.936182 33.398509 51.97628 83.536156 19.227873 64.061004 10.848333 113.919466-23.599114 140.382221a23.75466 23.75466 0 0 1-3.274442 2.11383c-2.93942 1.571413-13.879485 6.716395-31.2089 6.716395z m-83.982852-110.541328c40.182706 55.725336 71.100456 62.681033 83.982852 62.681033 3.485825 0 6.066292-0.474615 7.633717-0.881427 21.537133-20.145196 10.529265-67.020366 4.610541-86.718866-3.816859-12.730838-9.524199-24.009914-15.359166-33.318742-5.854909 27.523658 0.438719 50.360995 0.530452 50.680064a23.922171 23.922171 0 0 1-37.813621 25.389886c-10.824403-8.531098-27.312275-14.182601-43.584775-17.831948z" fill="#666666" p-id="1241"></path><path d="M797.026002 44.618837s37.478599 18.709387 61.592211 57.436342c19.586826 31.472132 40.621425 79.683402 15.343213 113.257399 0 0-54.708305 52.251477-172.660001-67.9337 0 0 66.66939-17.417159 107.697628 0 0 0.007977-29.063164-47.026728-11.973051-102.760041z" fill="#FFFFFF" p-id="1242"></path><path d="M837.603556 250.549719c-45.507164 0-97.112526-29.071141-153.38028-86.407773a23.930147 23.930147 0 0 1 11.031798-39.915486c1.332112-0.346987 33.003662-8.519132 67.586713-8.519132 3.031152 0 5.99849 0.063814 8.906003 0.187452-4.957529-22.099491-6.413279-49.555347 2.400992-78.295453a23.926159 23.926159 0 0 1 33.56602-14.393984c1.778808 0.885415 43.848007 22.239084 71.220106 66.198764 34.957957 56.164056 39.975311 105.990611 14.142717 140.302454a23.611079 23.611079 0 0 1-2.588444 2.911501c-3.138838 2.999245-20.416404 17.931657-52.885625 17.931657z m-83.009693-86.794644c41.151877 33.123312 68.739348 38.93435 83.005704 38.93435 10.058639 0 16.240593-2.724048 18.9447-4.271531 15.068016-24.767702-7.526031-66.501879-18.23876-83.715633-6.712406-10.772555-14.732994-19.782255-22.454455-27.001183 1.806726 27.244473 13.408859 46.938984 13.572382 47.214181l-20.424381 12.467607-9.352699 22.027701c-8.997735-3.820847-21.724585-5.838956-36.808555-5.838956-2.771909 0-5.523876 0.063814-8.243936 0.183464z" fill="#666666" p-id="1243"></path><path d="M678.06924 404.520276h-118.143137V286.377138H460.360736v118.143138H342.21361v99.573343h118.147126v118.147126h99.565367v-118.147126h118.143137z" fill="#FF7878" p-id="1244"></path><path d="M664.935577 928.614433c-49.104662-36.804567-202.125989-140.852847-335.544537-118.362497 0 0 148.283158 12.838524 267.41142 183.017766 0 0 13.177534 13.6003 26.64223 2.221516l42.783115-41.893711c17.0263-14.42589-1.284251-24.983074-1.292228-24.983074z" fill="#FFFFFF" p-id="1245"></path><path d="M611.934289 1023.960116c-17.815995 0-30.048288-11.697854-32.321652-14.043008a23.818473 23.818473 0 0 1-2.412956-2.927454c-57.839166-82.618834-122.642005-125.202531-166.817057-146.372735-47.971969-22.992883-82.802298-26.502638-83.149286-26.530557a23.978008 23.978008 0 0 1-21.708632-22.956988 23.89824 23.89824 0 0 1 19.885953-24.476552 258.597149 258.597149 0 0 1 42.803057-3.481836c128.054207 0 259.135577 87.468677 310.330139 125.73697 8.132262 5.085156 14.302251 13.763823 16.715208 20.348602 5.352376 14.593402 0.554382 30.215799-12.826559 41.961514l-42.248676 41.371236a21.277889 21.277889 0 0 1-1.296216 1.176566c-7.888972 6.668534-17.209764 10.194243-26.953323 10.194242z m-105.288659-160.240255c34.762527 26.494661 71.088491 61.995035 105.296636 109.536262l31.456179-30.802088c-25.533467-18.569794-76.692134-53.029207-136.752815-78.734174z m147.565253 86.288123c0.701951 0.378894 1.451762 0.697963 2.217527 0.97316a24.265169 24.265169 0 0 1-2.217527-0.97316z" fill="#666666" p-id="1246"></path><path d="M335.138264 770.324485c-27.495739-36.294057-29.174838-107.003654-29.174838-107.003654 145.02467 86.36789 110.688897 154.122114 110.688896 154.122114-24.715854 33.741508-75.782788 25.214399-110.688896 13.815672-42.982533-14.023066-70.741504-46.448416-70.741504-46.448416 47.808446-31.292656 99.916342-14.489704 99.916342-14.485716z" fill="#FFFFFF" p-id="1247"></path><path d="M361.465414 865.267344c-18.876898 0-40.05109-3.78894-62.932299-11.263122-48.801547-15.917536-80.181947-52.095931-81.494117-53.627461a23.942112 23.942112 0 0 1 5.073191-35.588117c21.269913-13.919369 46.348707-21.744527 72.859322-22.7815-11.498436-35.715745-12.79864-72.496381-12.934244-78.115978a23.922171 23.922171 0 0 1 11.853399-21.230029 23.942112 23.942112 0 0 1 24.31303 0.099709c65.141849 38.798746 105.55588 79.918715 120.113386 122.223228 12.479572 36.26215 1.025008 60.619052-0.323057 63.279286a24.261181 24.261181 0 0 1-2.042039 3.322302c-11.251158 15.363155-33.310765 33.681682-74.486572 33.681682z m-81.506082-73.429657c9.264955 6.261722 20.59588 12.487549 33.422439 16.671336 17.82796 5.823003 34.451435 8.898026 48.083643 8.898027 20.962809 0 29.960544-7.151126 33.928961-11.642017 1.826668-7.952786 5.300528-43.369404-58.828279-93.020471 3.605476 15.490782 8.96184 31.005494 16.727173 41.877758 3.441953 3.657324 5.775142 8.690632 5.775142 15.706153a23.938124 23.938124 0 0 1-31.180982 22.805431c-0.650102-0.19543-11.56225-3.386116-26.83766-3.386116a103.896723 103.896723 0 0 0-21.090437 2.089899z" fill="#666666" p-id="1248"></path><path d="M212.217073 680.626316c-15.474829-42.791092 3.705184-110.848431 3.705185-110.848431 112.475681 125.294263 59.925077 179.914824 59.925077 179.914824-33.414462 24.94319-79.440112 1.734936-109.265053-19.455209-36.716823-26.079872-53.5796-65.253523-53.579599-65.253524 54.620561-15.797886 99.214391 15.64234 99.21439 15.64234z" fill="#FFFFFF" p-id="1249"></path><path d="M242.153688 784.431307c-26.941358 0-57.029529-11.669935-89.430949-34.682761-41.710247-29.625522-60.906213-73.453587-61.699897-75.304185a23.938124 23.938124 0 0 1 15.331248-32.44928 136.840559 136.840559 0 0 1 38.056911-5.384283c13.919369 0 26.702056 2.109841 37.821598 5.097122-0.434731-37.498541 9.129351-73.018856 10.652904-78.42707a23.930147 23.930147 0 0 1 40.840784-9.492292c123.758745 137.861579 66.322403 205.260839 59.362719 212.491732a24.671982 24.671982 0 0 1-2.927454 2.584456c-13.831625 10.333835-29.984475 15.566561-48.007864 15.566561zM153.576247 684.929754c6.963673 8.726527 15.905571 18.019401 26.861591 25.800687 23.459521 16.667348 45.375548 25.840571 61.71585 25.840571 6.429233 0 11.965074-1.423844 16.83087-4.343322 4.123962-7.218928 17.552763-39.983288-28.39312-105.922809-1.14067 16.408104-0.502533 33.37059 4.131939 46.181196a23.930147 23.930147 0 0 1-36.294057 27.695158c-0.095721-0.059825-18.785166-12.675001-44.853073-15.251481z" fill="#666666" p-id="1250"></path><path d="M130.894456 558.865738c2.257411-45.726523 46.80338-100.111771 46.80338-100.111772 56.211916 161.947272-14.302251 190.05323-14.302252 190.053231-41.004307 8.894038-74.985117-31.651608-94.59986-63.550495-24.161472-39.277348-24.608168-82.255893-24.608169-82.255893 57.280796 8.371563 86.706901 55.864929 86.706901 55.864929z" fill="#FFFFFF" p-id="1251"></path><path d="M151.873219 673.9857c-37.031903 0.003988-72.807473-26.343104-103.458004-76.193589-27.320252-44.414353-28.129888-92.51395-28.153818-94.540036a23.918182 23.918182 0 0 1 27.388053-23.926159c30.26366 4.419101 53.922599 17.859867 70.940922 31.5519 14.310228-34.507272 37.059822-62.968194 40.597495-67.287586a23.926159 23.926159 0 1 1 41.11997 7.318636c25.226364 72.679846 29.808987 130.642651 13.62423 172.27712-13.971218 35.935105-38.878513 46.739566-41.674351 47.852317a23.611079 23.611079 0 0 1-3.78894 1.156624 78.335337 78.335337 0 0 1-16.595557 1.790773z m-77.605468-135.57625c3.126873 10.768566 7.829147 22.797454 14.916458 34.315831 20.871077 33.940926 43.720379 53.404112 62.68901 53.404113 1.104775 0 2.225504-0.063814 3.342243-0.191442 6.696453-4.957529 31.954723-29.665406 14.023067-110.377804-7.589845 14.677157-13.759835 30.674461-14.441844 44.486144a23.930147 23.930147 0 0 1-44.246843 11.426645c-0.115662-0.191441-12.70292-19.586826-36.282091-33.063487z" fill="#666666" p-id="1252"></path><path d="M103.701832 413.525988c17.397217-42.340407 78.363256-78.510825 78.363256-78.510825 0.151558 171.802504-77.027156 174.367019-77.027156 174.367018-42.416186-5.539829-61.608164-55.298582-69.868054-92.043323-10.162336-45.239944 3.721138-85.921194 3.721138-85.921194 52.323267 27.336205 64.810816 82.116301 64.810816 82.108324z" fill="#FFFFFF" p-id="1253"></path><path d="M105.037932 533.316317a23.690846 23.690846 0 0 1-3.098954-0.203406c-43.369404-5.663468-75.371987-44.912898-90.116947-110.525374-11.514389-51.242422 3.76501-96.976922 4.419101-98.899311a23.930147 23.930147 0 0 1 33.729542-13.480649c27.81082 14.529588 46.141312 35.584129 57.914945 54.457038 25.361968-27.994284 57.093343-47.33782 61.967117-50.229379a23.930147 23.930147 0 0 1 36.138511 20.559985c0.067802 77.206632-14.852645 133.514269-44.346552 167.351497-25.385898 29.126978-52.77794 30.849948-55.817068 30.953646a17.26959 17.26959 0 0 1-0.789695 0.015953zM55.618189 374.376267c-0.610219 11.275088-0.107686 24.328983 2.899536 37.7179 4.514821 20.08537 17.915704 66.322403 46.595986 73.014868 8.044518-2.337178 41.020261-16.970463 50.476657-100.446793-12.591246 11.466529-24.356902 24.827528-29.75315 37.96119a23.934136 23.934136 0 0 1-45.44335-3.669289c-0.067802-0.29115-5.890805-23.547265-24.775679-44.577876z" fill="#666666" p-id="1254"></path><path d="M131.022083 264.943703c35.548234-28.002261 105.55588-28.95149 105.55588-28.95149-83.472342 148.865458-151.051078 112.643192-151.051078 112.643192-33.765438-25.936291-26.039989-78.598569-15.255469-114.529685 13.273255-44.242854 44.992665-72.556207 44.992665-72.556207 31.659585 49.734823 15.750025 103.39419 15.758002 103.39419z" fill="#FFFFFF" p-id="1255"></path><path d="M105.432779 376.446225c-17.337392 0-28.277457-5.14897-31.216877-6.724372a23.738706 23.738706 0 0 1-3.262477-2.109841C36.50199 341.149257 28.12245 291.294784 47.354312 227.225803c15.040098-50.137647 50.476657-82.188091 51.97628-83.52818a23.930147 23.930147 0 0 1 36.122557 5.005389c16.898672 26.54651 22.438501 53.775029 23.371777 75.874521 35.368758-11.494447 71.842291-12.4357 77.425992-12.511479 8.578958-0.027919 16.519778 4.343322 20.891019 11.693866a23.942112 23.942112 0 0 1 0.307103 23.938124c-59.661846 106.409389-115.594577 128.748181-152.008284 128.752169l-0.007977-0.003988z m-7.629728-48.741722c1.571413 0.406813 4.147892 0.881427 7.633717 0.881427 12.886384 0 43.828065-6.967661 84.038689-62.752823-16.2725 3.641371-32.728465 9.304839-43.648589 17.907727a23.938124 23.938124 0 0 1-33.909019-4.383205 23.970031 23.970031 0 0 1-3.900614-21.006681c0.087744-0.31508 6.389349-23.156406 0.53444-50.684053-5.834968 9.304839-11.538319 20.579927-15.359166 33.318742-5.914735 19.702488-16.930579 66.577658 4.610542 86.718866z" fill="#666666" p-id="1256"></path><path d="M214.996959 147.386854c41.028238-17.417159 107.697628 0 107.697628 0-117.951696 120.181188-172.660001 67.929712-172.660001 67.929712-25.278212-33.573997-4.243613-81.793244 15.343212-113.257399 24.113612-38.730943 61.592211-57.436342 61.592211-57.436342 17.086125 55.729325-11.97305 102.764029-11.97305 102.764029z" fill="#FFFFFF" p-id="1257"></path><path d="M186.388468 250.549719c-32.481187 0-49.754765-14.9364-52.889614-17.931657a24.173437 24.173437 0 0 1-2.584456-2.907512c-25.836582-34.315831-20.811251-84.142386 14.142717-140.298466C172.437192 45.440438 214.506391 24.094747 216.285198 23.209331a23.930147 23.930147 0 0 1 33.56602 14.393984c9.065537 29.569685 7.250835 56.953751 2.412957 78.295454a208.954058 208.954058 0 0 1 8.89005-0.187453c34.58704 0 66.25859 8.168157 67.590701 8.519132a23.930147 23.930147 0 0 1 11.031798 39.915486C283.508971 221.478579 231.907596 250.545731 186.400433 250.549719h-0.011965zM167.455733 198.421882c2.69613 1.547483 8.878085 4.267543 18.936723 4.267543h0.003988c14.266356 0 41.853828-5.815026 83.001716-38.930362a187.779866 187.779866 0 0 0-8.239947-0.183464c-15.079981 0-27.806831 2.018109-36.804567 5.838956a23.930147 23.930147 0 0 1-29.709277-34.606981c0.111674-0.187453 11.70583-19.866011 13.504579-47.110484-7.717473 7.222916-15.742049 16.228628-22.450466 27.00916-10.720706 17.209764-33.318742 58.943941-18.242749 83.715632z" fill="#666666" p-id="1258"></path><path d="M390.727996 1003.280481c-9.751535 0-19.072327-3.525708-26.9613-10.198231a23.946101 23.946101 0 0 1-1.288239-1.176566l-42.248675-41.36326c-14.286298-12.515467-15.450898-25.960222-14.848657-32.927882 1.168589-13.584347 10.242103-23.934136 18.82505-29.458012 51.270341-38.308178 182.263967-125.669169 310.226441-125.669168 14.69311 0 29.095071 1.172577 42.807046 3.485824a23.922171 23.922171 0 0 1-1.918401 47.433541c-0.251267 0.02393-35.081596 3.533685-83.053564 26.52258-44.175052 21.17818-108.981879 63.757889-166.817057 146.376723-0.725881 1.036973-1.531529 2.014121-2.408969 2.919478-2.265387 2.353131-14.493693 14.054973-32.313675 14.054973z m-31.468144-81.502094l31.45219 30.794112c34.212134-47.541226 70.538098-83.0416 105.300625-109.536262-60.052705 25.69699-111.219348 60.168367-136.752815 78.74215z" fill="#666666" opacity=".15" p-id="1259"></path><path d="M641.192883 844.587709c-41.16783 0-63.231426-18.318528-74.486572-33.681683a24.061763 24.061763 0 0 1-2.042039-3.32629c-1.348065-2.656246-12.802629-27.013148-0.323057-63.27131 14.557506-42.304512 54.967548-83.42847 120.109398-122.227216a23.930147 23.930147 0 0 1 36.170417 21.13032c-0.131616 5.623585-1.435809 42.404221-12.930256 78.115978 26.506627 1.040961 51.585421 8.862131 72.855334 22.7815a23.926159 23.926159 0 0 1 5.073191 35.588118c-1.31217 1.531529-32.684593 37.709924-81.498105 53.635437-22.877221 7.466206-44.051413 11.251158-62.928311 11.255146z m-34.136355-59.741613c3.852754 4.470949 12.794652 11.881318 34.136355 11.881318 13.628219-0.003988 30.255683-3.075024 48.079654-8.898026 12.822571-4.183787 24.157484-10.405626 33.422439-16.675325a104.112094 104.112094 0 0 0-21.086448-2.085911c-15.091946 0-25.924326 3.110919-26.797776 3.374151a23.934136 23.934136 0 0 1-29.362291-32.026514c0.618195-1.483669 1.527541-3.653336 3.589522-6.010455 7.932844-10.88024 13.380941-26.586394 17.038265-42.272606-64.463829 50.10574-60.491424 86.07674-59.01972 92.713368z" fill="#666666" opacity=".15" p-id="1260"></path><path d="M760.496633 763.759648c-18.019401 0-34.164274-5.232726-47.995899-15.558584a24.09367 24.09367 0 0 1-2.931443-2.584456c-6.955696-7.230893-64.396026-74.634141 59.362718-212.49572a23.930147 23.930147 0 1 1 40.840785 9.492291c1.523553 5.408213 11.091623 40.92454 10.652904 78.423082 11.119542-2.983292 23.902229-5.093133 37.81761-5.093133 12.906326 0 25.712943 1.810714 38.060899 5.384283a23.958066 23.958066 0 0 1 14.988249 12.762745 23.954077 23.954077 0 0 1 0.346987 19.686535c-0.797672 1.850598-19.997626 45.682651-61.703885 75.308173-32.401419 23.012825-62.489591 34.678772-89.430949 34.68276l-0.007976-0.007976z m-16.822894-52.203617c4.865797 2.91549 10.397649 4.343322 16.826882 4.343322 16.340302-0.003988 38.260317-9.1812 61.719838-25.840571 10.952031-7.781286 19.897918-17.082137 26.861591-25.812652-26.135709 2.560526-44.653655 15.119865-44.853073 15.263446a23.930147 23.930147 0 0 1-36.294057-27.703134c4.634472-12.806617 5.272609-29.769103 4.131939-46.177208-45.945883 65.935533-32.517082 98.707869-28.39312 105.926797z" fill="#666666" opacity=".15" p-id="1261"></path><path d="M850.773113 653.314041c-5.535841 0-11.115553-0.602242-16.595557-1.790773a23.690846 23.690846 0 0 1-3.784951-1.156623c-2.791851-1.112752-27.699146-11.917213-41.670364-47.852318-16.188745-41.634468-11.602133-99.597273 13.624231-172.281108a23.926159 23.926159 0 0 1 41.115981-7.318637c3.541662 4.319392 26.315185 32.820197 40.625414 67.3514 17.046242-13.719951 40.725122-27.204589 70.92098-31.611725 6.931766-1.013043 13.935322 1.056915 19.199955 5.65948s8.251912 11.275088 8.18411 18.270668c-0.02393 2.026086-0.833567 50.121694-28.161795 94.544024-30.646542 49.83852-66.418124 76.185612-103.450027 76.1896l-0.007977-0.003988z m-3.330278-48.043759c1.108763 0.123639 2.217527 0.187453 3.338255 0.187453 18.972618 0 41.821921-19.467175 62.689009-53.400124 7.087312-11.522366 11.793574-23.543277 14.916459-34.315831-23.58316 13.484638-36.186371 32.911929-36.357871 33.183137a24.017891 24.017891 0 0 1-26.347092 10.349789 23.902229 23.902229 0 0 1-17.815995-21.892096c-0.685998-13.811683-6.851999-29.816964-14.445832-44.490133-17.935645 80.720375 7.33459 105.420276 14.023067 110.377805z" fill="#666666" opacity=".15" p-id="1262"></path><path d="M897.616377 512.636682c-0.263232 0-0.530452-0.003988-0.793683-0.011966-3.039129-0.099709-30.435159-1.826668-55.817069-30.949657-29.493907-33.841217-44.414353-90.148853-44.342563-167.351497a23.930147 23.930147 0 0 1 36.134522-20.559985c4.869785 2.887571 36.517405 22.179258 61.855443 50.101752 11.729761-18.789154 30.052277-39.708091 58.034596-54.329411a23.890264 23.890264 0 0 1 19.961731-1.009055 23.918182 23.918182 0 0 1 13.767811 14.489705c0.654091 1.922389 15.925513 47.656888 4.419101 98.891333-14.744959 65.616464-46.751531 104.869882-90.124924 110.533351a25.090759 25.090759 0 0 1-3.094965 0.19543z m-50.540471-148.558355c5.432143 47.856306 18.561818 73.014868 30.008404 86.14853 8.894038 10.210196 17.157916 13.400883 20.145196 14.274333 28.895653-6.425245 42.376303-52.929498 46.907077-73.086658 3.01121-13.388917 3.509755-26.438824 2.899536-37.717901-18.904816 21.050553-24.715854 44.330598-24.795621 44.649667-3.01121 12.53142-15.407027 20.516113-28.058097 17.94761a23.926159 23.926159 0 0 1-17.365311-14.358088c-5.348388-13.018-17.153927-26.386976-29.741184-37.857493z" fill="#666666" opacity=".15" p-id="1263"></path><path d="M897.221529 355.766589c-36.413708 0-92.34245-22.334804-152.008284-128.752169a23.922171 23.922171 0 0 1 0.307104-23.938124c4.37124-7.346555 12.152526-11.749702 20.88703-11.693866 5.583701 0.075779 42.057234 1.013043 77.425992 12.507491 0.929287-22.103479 6.477093-49.331999 23.371777-75.874521a23.922171 23.922171 0 0 1 36.122557-5.001401c1.499623 1.340088 36.932194 33.394521 51.97628 83.52818 19.227873 64.064993 10.848333 113.923455-23.599113 140.386209a24.157484 24.157484 0 0 1-3.274442 2.117818c-2.935431 1.57939-13.879485 6.720383-31.208901 6.720383z m-84.038689-110.613118c40.210624 55.78915 71.152305 62.756811 84.038689 62.756812 3.485825 0 6.062304-0.474615 7.633717-0.881427 21.537133-20.145196 10.525276-67.024354 4.610542-86.726843-3.820847-12.730838-9.528187-24.009914-15.363155-33.314753-5.858898 27.523658 0.442708 50.364983 0.53444 50.684052a23.938124 23.938124 0 0 1-37.813621 25.389886c-10.916136-8.602888-27.368112-14.270345-43.640612-17.907727z" fill="#666666" opacity=".15" p-id="1264"></path><path d="M816.257864 229.870084c-45.499187 0-97.10455-29.067152-153.372302-86.399797a23.930147 23.930147 0 0 1 11.031797-39.915486c1.332112-0.346987 33.003662-8.519132 67.586713-8.519132 3.031152 0 6.002479 0.063814 8.906003 0.187452-4.957529-22.099491-6.413279-49.555347 2.400992-78.299442a23.926159 23.926159 0 0 1 33.56602-14.397972c1.778808 0.889404 43.844018 22.239084 71.216118 66.202753 34.957957 56.160067 39.979299 105.986623 14.146706 140.298466a23.974019 23.974019 0 0 1-2.592433 2.915489c-3.130861 2.995257-20.416404 17.927669-52.889614 17.927669z m-82.997728-86.790656c41.151877 33.119324 68.731372 38.930361 83.001717 38.930361 10.058639 0 16.244582-2.728037 18.948688-4.275519 15.068016-24.767702-7.53002-66.497891-18.242749-83.707656-6.708418-10.772555-14.729006-19.782255-22.446478-27.001183 1.802738 27.244473 13.404871 46.942972 13.568393 47.214181l-20.424381 12.467607-9.352699 22.0277c-8.997735-3.820847-21.724585-5.838956-36.808555-5.838956-2.771909 0-5.527864 0.067802-8.243936 0.183465z" fill="#666666" opacity=".15" p-id="1265"></path><path d="M643.605839 1003.284469c-17.815995 0-30.0443-11.697854-32.317664-14.043008a23.136464 23.136464 0 0 1-2.412956-2.923466c-111.430731-159.18334-248.502615-172.779652-249.870622-172.903292a23.930147 23.930147 0 0 1-1.914412-47.437528 258.597149 258.597149 0 0 1 42.803057-3.481837c128.04623 0 259.123612 87.464689 310.326151 125.736971 8.13625 5.085156 14.30624 13.763823 16.715208 20.344614 5.356365 14.593402 0.562358 30.215799-12.822571 41.961513l-42.256652 41.371236c-0.414789 0.410801-0.845532 0.797672-1.288239 1.176566-7.89296 6.672523-17.217741 10.198231-26.9613 10.198231z m-105.288659-160.244243c34.766516 26.49865 71.088491 61.999023 105.300625 109.540249l31.456178-30.798099c-25.533467-18.569794-76.696122-53.037183-136.756803-78.74215z m147.601148 86.304076c0.685998 0.370917 1.415867 0.682009 2.16169 0.949229a22.613989 22.613989 0 0 1-2.16169-0.949229z" fill="#666666" opacity=".15" p-id="1266"></path><path d="M393.140952 844.587709c-18.87291 0-40.05109-3.78894-62.932299-11.259135-48.805535-15.925513-80.181947-52.103907-81.494117-53.635437a23.942112 23.942112 0 0 1 5.073192-35.588117c21.269913-13.919369 46.344719-21.744527 72.855333-22.7815-11.494447-35.711757-12.79864-72.496381-12.934244-78.115978a23.930147 23.930147 0 1 1 36.170417-21.13032c65.141849 38.798746 105.551892 79.918715 120.109398 122.227216 12.475583 36.26215 1.025008 60.619052-0.323057 63.275298-0.586289 1.164601-1.272286 2.273364-2.042039 3.32629-11.251158 15.367143-33.310765 33.681682-74.482584 33.681683zM311.634871 771.154063c9.264955 6.26571 20.599869 12.487549 33.426427 16.675325 17.82796 5.823003 34.455424 8.898026 48.083643 8.898026 20.962809 0 29.960544-7.151126 33.924972-11.642017 1.826668-7.952786 5.296539-43.369404-58.828279-93.024459 3.605476 15.486794 8.957852 31.005494 16.723185 41.877758 3.445941 3.657324 5.779131 8.690632 5.77913 15.706153a23.938124 23.938124 0 0 1-31.180982 22.805431c-0.618195-0.183464-11.538319-3.382127-26.83766-3.382128-7.306672 0-14.346123 0.697963-21.090436 2.085911z" fill="#666666" opacity=".15" p-id="1267"></path><path d="M273.825238 763.759648c-26.941358 0-57.029529-11.669935-89.430949-34.682761-41.710247-29.625522-60.906213-73.457576-61.699897-75.308173a23.938124 23.938124 0 0 1 15.32726-32.44928 136.868478 136.868478 0 0 1 38.060899-5.384283c13.915381 0 26.702056 2.109841 37.817609 5.093133-0.434731-37.498541 9.13334-73.014868 10.656893-78.423081a23.930147 23.930147 0 0 1 40.840784-9.492292c123.758745 137.861579 66.318415 205.264827 59.358731 212.49572a24.396785 24.396785 0 0 1-2.931443 2.584456c-13.827637 10.329847-29.980486 15.566561-47.999887 15.566561z m-88.581429-99.505541c6.963673 8.726527 15.905571 18.019401 26.865579 25.804675 23.459521 16.663359 45.375548 25.840571 61.71585 25.840571 6.429233 0 11.965074-1.423844 16.826882-4.343322 4.12795-7.218928 17.552763-39.991265-28.39312-105.926797-1.14067 16.404116-0.502533 33.37059 4.131939 46.177208a23.930147 23.930147 0 0 1-36.294057 27.699145c-0.091732-0.063814-18.781177-12.67899-44.853073-15.25148z" fill="#666666" opacity=".15" p-id="1268"></path><path d="M183.548757 653.310053c-37.031903 0.003988-72.807473-26.343104-103.458004-76.193589-27.328228-44.418342-28.133877-92.517938-28.153818-94.544024a23.930147 23.930147 0 0 1 27.384065-23.926159c30.26366 4.419101 53.922599 17.859867 70.940922 31.551899 14.310228-34.507272 37.059822-62.972183 40.597495-67.291574a23.926159 23.926159 0 1 1 41.11997 7.318636c25.226364 72.683834 29.808987 130.642651 13.62423 172.281108-13.967229 35.935105-38.878513 46.739566-41.670363 47.852318a23.611079 23.611079 0 0 1-3.78894 1.156624 78.052164 78.052164 0 0 1-16.595557 1.794761z m-77.605468-135.57625c3.122884 10.764578 7.829147 22.793465 14.916459 34.315831 20.871077 33.940926 43.720379 53.404112 62.689009 53.404112 1.104775 0 2.225504-0.063814 3.342244-0.191441 6.696453-4.961517 31.950735-29.669394 14.023066-110.377804-7.589845 14.673169-13.759835 30.678449-14.441844 44.490132a23.930147 23.930147 0 0 1-44.242854 11.422657c-0.123639-0.187453-12.710897-19.590814-36.28608-33.063487z" fill="#666666" opacity=".15" p-id="1269"></path><path d="M136.709482 512.636682c-1.036973 0-2.069958-0.067802-3.098954-0.199418-43.365415-5.663468-75.367999-44.916887-90.120935-110.529363-11.514389-51.238434 3.76501-96.972934 4.4191-98.895322a23.930147 23.930147 0 0 1 33.729543-13.476661c27.81082 14.529588 46.141312 35.588117 57.918933 54.457038 25.357979-27.994284 57.093343-47.33782 61.967117-50.229379a23.930147 23.930147 0 0 1 36.138511 20.559985c0.07179 77.206632-14.848656 133.514269-44.346552 167.351497-25.38191 29.122989-52.773952 30.849948-55.817068 30.949657a25.681036 25.681036 0 0 1-0.789695 0.011966zM87.289739 353.696631c-0.610219 11.275088-0.107686 24.324995 2.899536 37.713912 4.514821 20.08537 17.92368 66.33038 46.599974 73.018857 8.044518-2.337178 41.020261-16.970463 50.472669-100.450782-12.591246 11.466529-24.356902 24.827528-29.749161 37.957202a23.934136 23.934136 0 0 1-45.439362-3.661313c-0.075779-0.29115-5.898781-23.547265-24.783656-44.577876z" fill="#666666" opacity=".15" p-id="1270"></path><path d="M137.104329 355.770577c-17.337392 0-28.277457-5.14897-31.216877-6.724371a24.02188 24.02188 0 0 1-3.266465-2.109841c-34.43947-26.458766-42.81901-76.31324-23.599114-140.38621 15.044086-50.141635 50.480646-82.188091 51.980269-83.528179a23.930147 23.930147 0 0 1 36.122557 5.001401c16.898672 26.54651 22.44249 53.771041 23.371777 75.87452 35.372746-11.498436 71.838302-12.4357 77.425992-12.511478a23.926159 23.926159 0 0 1 21.198122 35.631989C229.458745 333.427796 173.530002 355.766589 137.112306 355.770577h-0.007977z m-7.62574-48.737733a30.610647 30.610647 0 0 0 7.629729 0.881427c12.886384 0 43.832053-6.967661 84.038689-62.756811-16.2725 3.641371-32.724476 9.304839-43.644601 17.907727a23.938124 23.938124 0 0 1-37.813621-25.389887c0.091732-0.31508 6.389349-23.160394 0.53444-50.684052-5.834968 9.304839-11.538319 20.579927-15.359166 33.318742-5.910746 19.6985-16.922603 66.581647 4.61453 86.722854z" fill="#666666" opacity=".15" p-id="1271"></path><path d="M218.064006 229.874072c-32.481187 0-49.758753-14.9364-52.889614-17.931657a24.173437 24.173437 0 0 1-2.584456-2.907513c-25.836582-34.315831-20.811251-84.142386 14.146706-140.294477C204.108742 24.764791 246.173952 3.415111 247.948772 2.529696a23.934136 23.934136 0 0 1 33.570008 14.393983c9.065537 29.569685 7.250835 56.961727 2.416945 78.303431a208.954058 208.954058 0 0 1 8.89005-0.187453c34.58704 0 66.25859 8.168157 67.590701 8.519132a23.930147 23.930147 0 0 1 11.031798 39.915486C315.180521 200.798943 263.579146 229.870084 218.071983 229.874072h-0.007977zM199.123294 177.742246c2.700118 1.547483 8.882073 4.271531 18.9447 4.267543 14.266356 0 41.853828-5.815026 82.997728-38.926373a187.779866 187.779866 0 0 0-8.239947-0.183464c-15.079981 0-27.806831 2.018109-36.804567 5.838956a23.930147 23.930147 0 1 1-29.705289-34.606982c0.111674-0.187453 11.70583-19.866011 13.504579-47.110483-7.717473 7.222916-15.742049 16.228628-22.450466 27.009159-10.720706 17.209764-33.314753 58.939953-18.246738 83.711644z" fill="#666666" opacity=".15" p-id="1272"></path></svg>
